<?xml version="1.0" encoding="utf-8"?>
<!-- Generator: Adobe Illustrator 16.0.0, SVG Export Plug-In . SVG Version: 6.00 Build 0)  -->
<!DOCTYPE svg PUBLIC "-//W3C//DTD SVG 1.1//EN" "http://www.w3.org/Graphics/SVG/1.1/DTD/svg11.dtd">
<svg version="1.1" id="Layer_1" xmlns="http://www.w3.org/2000/svg" xmlns:xlink="http://www.w3.org/1999/xlink" x="0px" y="0px"
	 width="400px" height="400px" viewBox="0 0 400 400" enable-background="new 0 0 400 400" xml:space="preserve">
<g id="Layer_1_1_">
	<circle fill="#F37036" stroke="#AC4E2B" stroke-width="14" stroke-miterlimit="10" cx="200.468" cy="199.914" r="191.914"/>
</g>
<g>
	<path fill="#AC4E2B" d="M195.395,303.721c-54.313,0-98.5-44.188-98.5-98.5c0-54.312,44.187-98.5,98.5-98.5s98.5,44.188,98.5,98.5
		C293.895,259.533,249.708,303.721,195.395,303.721L195.395,303.721z M195.395,122.012c-45.883,0-83.211,37.328-83.211,83.208
		c0,45.883,37.328,83.211,83.211,83.211c45.882,0,83.21-37.328,83.21-83.211C278.605,159.34,241.277,122.012,195.395,122.012
		L195.395,122.012z"/>
	<path fill="#AC4E2B" d="M158.518,155.287c30.564-17.127,69.068-6.771,87.015,23.031l20.553-11.518
		c-21.354-38.107-69.559-51.688-107.666-30.334c-38.107,21.355-51.688,69.558-30.334,107.664l4.648-2.604
		C116.684,210.66,127.954,172.416,158.518,155.287z"/>
	<circle fill="#AC4E2B" cx="195.983" cy="205.809" r="14.995"/>
	<polygon fill="#AC4E2B" points="187.975,201.508 123.294,204.848 187.869,208.877 	"/>
</g>
<g>
	<path fill="#FFFFFF" d="M200.395,298.721c-54.313,0-98.5-44.188-98.5-98.5s44.187-98.5,98.5-98.5s98.501,44.188,98.501,98.5
		S254.708,298.721,200.395,298.721L200.395,298.721z M200.395,117.012c-45.882,0-83.21,37.328-83.21,83.209
		c0,45.882,37.328,83.21,83.21,83.21c45.884,0,83.212-37.328,83.212-83.21C283.605,154.34,246.277,117.012,200.395,117.012
		L200.395,117.012z"/>
	<path fill="#FFFFFF" d="M163.518,150.287c30.564-17.127,69.068-6.771,87.015,23.031l20.553-11.518
		c-21.354-38.107-69.559-51.688-107.666-30.334c-38.107,21.355-51.688,69.558-30.334,107.664l4.648-2.604
		C121.684,205.66,132.954,167.416,163.518,150.287z"/>
	<circle fill="#FFFFFF" cx="200.982" cy="200.809" r="14.995"/>
	<polygon fill="#FFFFFF" points="192.975,196.508 128.294,199.848 192.869,203.877 	"/>
</g>
</svg>
